<svg width="100" height="100"  xmlns="http://www.w3.org/2000/svg">
	<g id="nero" featurekey="symbol1" fill="#ffffff" transform="matrix(1,0,0,1,1,1)">
		<g>
			<path d="M58.6,65.4L67.5,50l-8.9-15.4H40.8L31.9,50l8.9,15.4H58.6z M44.7,41.3h10.1l5,8.7l-5,8.7H44.7l-5-8.7L44.7,41.3z"></path>
			<path d="M80.1,50L64.9,76.3H34.5l-3-5.1h-8v-1.7h7L26.2,62H10.7v16.3c0,6.1,5,11.1,11.1,11.1h56.5c6.1,0,11.1-5,11.1-11.1V39.9   H74.2L80.1,50z"></path>
			<path d="M62.9,72.9L76.1,50L62.9,27.1H36.5L23.3,50l13.2,22.9H62.9z M39.8,32.9h19.8L69.5,50l-9.9,17.1H39.8L29.9,50L39.8,32.9z"></path>
			<path d="M78.3,10.7H21.7c-6.1,0-11.1,5-11.1,11.1v38.5h14.5L19.3,50l15.2-26.3h30.4l3,5.2h8.8v1.7h-7.8l4.3,7.5h16.1V21.7 C89.3,15.6,84.4,10.7,78.3,10.7z"></path>
		</g>
	</g>
</svg>
